<svg id="Ebene_1" data-name="Ebene 1" xmlns="http://www.w3.org/2000/svg" viewBox="0 0 36 36"><title>back to top_04</title><g id="_title_2" data-name=" title "><path d="M18,35A17,17,0,1,1,35,18,17,17,0,0,1,18,35Z" transform="translate(0 0)" fill="#fff"/><path d="M18,2A16,16,0,1,1,2,18,16,16,0,0,1,18,2m0-2A18,18,0,1,0,36,18,18,18,0,0,0,18,0Z" transform="translate(0 0)" fill="#c11800"/></g><g id="Ebene_2" data-name="Ebene 2"><rect x="17" y="22.39" width="2" height="2" fill="#c11800"/><rect x="17" y="18.98" width="2" height="2" fill="#c11800"/><rect x="17" y="15.64" width="2" height="2" fill="#c11800"/><rect x="17" y="11.61" width="2" height="2" fill="#c11800"/><rect x="20.97" y="15.61" width="2" height="2" fill="#c11800"/><rect x="18.97" y="13.61" width="2" height="2" fill="#c11800"/><rect x="13.03" y="15.61" width="2" height="2" fill="#c11800"/><rect x="15" y="13.61" width="2" height="2" fill="#c11800"/></g></svg>
