<svg width="16" height="16" viewBox="0 0 16 16" fill="none" xmlns="http://www.w3.org/2000/svg">
<path d="M3.75 8C3.75 7.20728 3.96841 6.46469 4.34784 5.82885V3.13172H1.65072C0.58025 4.52197 0 6.21632 0 8C0 9.78369 0.58025 11.478 1.65072 12.8683H4.34784V10.1712C3.96841 9.53532 3.75 8.79272 3.75 8Z" fill="#FBBD00"/>
<path d="M8 12.25L6.125 14.125L8 16C9.78372 16 11.478 15.4197 12.8683 14.3493V11.655H10.174C9.53262 12.0358 8.78691 12.25 8 12.25Z" fill="#0F9D58"/>
<path d="M4.34788 10.1712L1.65076 12.8683C1.86269 13.1435 2.09348 13.4071 2.34319 13.6569C3.85419 15.1678 5.86316 16 8.00004 16V12.25C6.44929 12.25 5.09013 11.415 4.34788 10.1712Z" fill="#31AA52"/>
<path d="M16 8C16 7.51328 15.9559 7.02566 15.869 6.55072L15.7987 6.16637H8V9.91638H11.7954C11.4268 10.6495 10.8601 11.2477 10.174 11.6551L12.8682 14.3493C13.1435 14.1374 13.4071 13.9066 13.6568 13.6569C15.1678 12.1458 16 10.1369 16 8Z" fill="#3C79E6"/>
<path d="M11.0052 4.99478L11.3367 5.32622L13.9883 2.67459L13.6569 2.34316C12.1459 0.832156 10.1369 0 8 0L6.125 1.875L8 3.75C9.13519 3.75 10.2025 4.19206 11.0052 4.99478Z" fill="#CF2D48"/>
<path d="M7.99995 3.75V0C5.86307 0 3.8541 0.832156 2.34307 2.34313C2.09335 2.59284 1.86257 2.85644 1.65063 3.13172L4.34776 5.82884C5.09004 4.585 6.4492 3.75 7.99995 3.75Z" fill="#EB4132"/>
</svg>
