<svg xmlns="http://www.w3.org/2000/svg" xmlns:xlink="http://www.w3.org/1999/xlink" viewBox="0 0 40 40"><defs><style>.cls-1{fill:none;}.cls-2{clip-path:url(#clip-path);}.cls-3{fill:#2d7abf;}.cls-4{fill:#fff;}</style><clipPath id="clip-path"><rect class="cls-1" width="40" height="40"/></clipPath></defs><title>icons</title><g id="lc_faq"><g id="Icon"><g class="cls-2"><g id="Icon-2" data-name="Icon"><g id="Ellipse_1397" data-name="Ellipse 1397"><circle class="cls-3" cx="20" cy="20" r="20"/></g></g></g></g><path class="cls-4" d="M22.937,26.714a10.181,10.181,0,0,0,1.921.225c2.165,2.786,6.806,2.851,6.806,2.851a5.044,5.044,0,0,1-2.92-3.579,7.5,7.5,0,0,0,4.569-5.276c.907-4.227-2.269-8.492-7.093-9.527s-9.47,1.553-10.377,5.779S18.112,25.679,22.937,26.714Z"/><path class="cls-4" d="M11.255,23.576a5.044,5.044,0,0,1-2.92,3.579s4.641-.065,6.806-2.851a10.137,10.137,0,0,0,1.174-.094,8.152,8.152,0,0,1-2.633-7.654,8.491,8.491,0,0,1,7.555-6.36A9.429,9.429,0,0,0,13.78,8.772c-4.824,1.035-8,5.3-7.093,9.527A7.5,7.5,0,0,0,11.255,23.576Z"/><path class="cls-3" d="M23.465,18.218a1.721,1.721,0,0,0,.42.047,1.8,1.8,0,0,0,.561-.088,1.567,1.567,0,0,0,.479-.251,1.18,1.18,0,0,0,.333-.409,1.237,1.237,0,0,0,.123-.561,1.3,1.3,0,0,0-.052-.356,1.257,1.257,0,0,0-.152-.333.8.8,0,0,0-.251-.245.718.718,0,0,0-.941.21,1.2,1.2,0,0,0-.192.654v.14H22.086a2.385,2.385,0,0,1,.677-1.793,2.4,2.4,0,0,1,.806-.537,2.665,2.665,0,0,1,1.991,0,2.387,2.387,0,0,1,1.32,1.32,2.568,2.568,0,0,1,.193,1,2.526,2.526,0,0,1-.135.824,2.426,2.426,0,0,1-.385.712,2.5,2.5,0,0,1-.6.549,2.272,2.272,0,0,1-.765.321L25.1,20.542H23.465ZM24.3,21.7a1.015,1.015,0,0,1,.737.3.986.986,0,0,1,.3.73,1.024,1.024,0,0,1-.3.741,1.029,1.029,0,0,1-1.472,0,1.02,1.02,0,0,1-.3-.741.982.982,0,0,1,.3-.73A1.012,1.012,0,0,1,24.3,21.7Z"/></g></svg>