<svg xmlns="http://www.w3.org/2000/svg" xmlns:xlink="http://www.w3.org/1999/xlink" viewBox="0 0 40 40"><defs><style>.cls-1{fill:none;}.cls-2{clip-path:url(#clip-path);}.cls-3{fill:#fff;fill-rule:evenodd;}.cls-4{fill:#2d7abf;}.cls-5{clip-path:url(#clip-path-2);}</style><clipPath id="clip-path"><rect class="cls-1" x="10.81" y="10.31" width="18.92" height="18.92"/></clipPath><clipPath id="clip-path-2"><rect class="cls-1" x="14.13" y="9" width="12" height="22"/></clipPath></defs><title>icons</title><g id="Ic_quicklinks"><g id="Form_7" data-name="Form 7"><g class="cls-2"><g id="Form_7-2" data-name="Form 7"><path class="cls-3" d="M20.51,24.19l-2.05,2.05a2.7,2.7,0,0,1-3.82,0L14,25.59a2.7,2.7,0,0,1,0-3.82L16.71,19a2.72,2.72,0,0,1,3.82,0l1,1a.94.94,0,0,0,1.33-1.33l-1-1a4.59,4.59,0,0,0-6.46,0l-2.75,2.73a4.53,4.53,0,0,0-1.33,3.24,4.48,4.48,0,0,0,1.33,3.22l.65.65a4.56,4.56,0,0,0,6.44,0l2.05-2.05a.93.93,0,0,0,0-1.33A.89.89,0,0,0,20.51,24.19Zm7.23-11.05-.63-.7a4.56,4.56,0,0,0-6.44,0l-1.73,1.73a.94.94,0,0,0,1.33,1.33L22,13.77a2.7,2.7,0,0,1,3.82,0l.65.65a2.7,2.7,0,0,1,0,3.82l-2.4,2.38a2.7,2.7,0,0,1-3.82,0l-1-1A.94.94,0,0,0,17.95,21l1,1a4.56,4.56,0,0,0,6.44,0l2.38-2.38a4.56,4.56,0,0,0,0-6.44Z"/></g></g></g></g><g id="Ic_fb"><g id="Ellipse_1397" data-name="Ellipse 1397"><circle class="cls-4" cx="20.13" cy="19.77" r="20"/></g><g id="Form_6" data-name="Form 6"><g class="cls-5"><g id="Form_6-2" data-name="Form 6"><path class="cls-3" d="M23.62,12.54h2V9.19A26.51,26.51,0,0,0,22.72,9C19.86,9,17.9,10.78,17.9,14v2.76H14.67v3.74H17.9V30.1h3.87V20.49H25l.48-3.74H21.77V14.36C21.77,13.27,22.07,12.54,23.62,12.54Z"/></g></g></g></g></svg>