<svg xmlns="http://www.w3.org/2000/svg" width="60" height="60" viewBox="4 0 150 155">
  <circle cx="75" cy="-75" transform="scale(1 -1)" r="75" fill="#2d7abf" fill-opacity=".987"/>
  <g fill="#fff">
    <path d="M75.025 39.714c11.496 0 12.857.05 17.378.252 4.202.185 6.47.891 7.984 1.48 2 .772 3.445 1.714 4.94 3.21 1.513 1.512 2.438 2.94 3.228 4.94.588 1.513 1.294 3.799 1.479 7.984.201 4.538.252 5.899.252 17.378s-.05 12.857-.252 17.378c-.185 4.202-.891 6.47-1.48 7.983-.772 2-1.714 3.446-3.21 4.942-1.512 1.512-2.94 2.436-4.94 3.226-1.513.589-3.799 1.295-7.984 1.48-4.538.201-5.899.251-17.378.251s-12.857-.05-17.378-.252c-4.202-.184-6.47-.89-7.983-1.479-2-.773-3.446-1.714-4.942-3.21-1.512-1.512-2.436-2.94-3.226-4.94-.589-1.513-1.295-3.8-1.48-7.984-.201-4.538-.251-5.9-.251-17.378 0-11.48.05-12.857.252-17.378.184-4.202.89-6.471 1.479-7.984.773-2 1.714-3.445 3.21-4.94 1.512-1.513 2.94-2.438 4.94-3.228 1.513-.588 3.8-1.294 7.984-1.479 4.521-.201 5.882-.252 17.378-.252zm0-7.748c-11.68 0-13.143.05-17.73.252-4.572.202-7.715.942-10.438 2-2.84 1.11-5.244 2.572-7.63 4.975-2.403 2.387-3.866 4.79-4.975 7.614-1.059 2.74-1.798 5.865-2 10.437C32.05 61.849 32 63.31 32 74.992c0 11.68.05 13.142.252 17.73.202 4.572.941 7.715 2 10.438 1.11 2.84 2.572 5.243 4.975 7.63 2.386 2.386 4.79 3.865 7.613 4.958 2.74 1.059 5.866 1.798 10.437 2 4.589.202 6.05.252 17.731.252 11.681 0 13.143-.05 17.731-.252 4.572-.202 7.715-.941 10.437-2 2.824-1.093 5.227-2.572 7.614-4.958 2.386-2.387 3.865-4.79 4.958-7.614 1.059-2.739 1.798-5.865 2-10.437.202-4.588.252-6.05.252-17.73 0-11.681-.05-13.143-.252-17.732-.202-4.571-.941-7.714-2-10.437-1.059-2.857-2.521-5.26-4.924-7.647-2.387-2.386-4.79-3.865-7.614-4.958-2.74-1.059-5.865-1.798-10.437-2-4.605-.218-6.067-.269-17.748-.269z"/>
    <path d="M75.025 52.89c-12.201 0-22.1 9.9-22.1 22.102 0 12.201 9.899 22.1 22.1 22.1 12.202 0 22.101-9.899 22.101-22.1 0-12.202-9.9-22.101-22.1-22.101zm0 36.438c-7.916 0-14.336-6.42-14.336-14.336s6.42-14.337 14.336-14.337 14.336 6.42 14.336 14.337c0 7.916-6.42 14.336-14.336 14.336zM103.16 52.017a5.16 5.16 0 11-10.32 0 5.16 5.16 0 0110.32 0z"/>
  </g>
</svg>
