<svg class="social-inst" width="40" height="40" viewBox="0 0 25 25" fill="none" xmlns="http://www.w3.org/2000/svg">
<circle cx="12.5" cy="12.5" r="12" stroke="gray"/>
<path d="M12.5014 9.29516C10.7278 9.29516 9.29727 10.726 9.29727 12.5C9.29727 14.274 10.7278 15.7048 12.5014 15.7048C14.275 15.7048 15.7055 14.274 15.7055 12.5C15.7055 10.726 14.275 9.29516 12.5014 9.29516ZM12.5014 14.5836C11.3553 14.5836 10.4183 13.6492 10.4183 12.5C10.4183 11.3508 11.3525 10.4164 12.5014 10.4164C13.6503 10.4164 14.5845 11.3508 14.5845 12.5C14.5845 13.6492 13.6475 14.5836 12.5014 14.5836ZM16.5839 9.16406C16.5839 9.57966 16.2493 9.91158 15.8366 9.91158C15.4211 9.91158 15.0892 9.57687 15.0892 9.16406C15.0892 8.75126 15.4239 8.41655 15.8366 8.41655C16.2493 8.41655 16.5839 8.75126 16.5839 9.16406ZM18.7061 9.92274C18.6587 8.9214 18.43 8.03442 17.6966 7.30364C16.966 6.57285 16.0792 6.34414 15.0781 6.29393C14.0463 6.23536 10.9537 6.23536 9.92192 6.29393C8.92359 6.34135 8.03681 6.57007 7.3034 7.30085C6.56999 8.03163 6.34412 8.91861 6.29392 9.91995C6.23536 10.952 6.23536 14.0452 6.29392 15.0773C6.34133 16.0786 6.56999 16.9656 7.3034 17.6964C8.03681 18.4271 8.9208 18.6559 9.92192 18.7061C10.9537 18.7646 14.0463 18.7646 15.0781 18.7061C16.0792 18.6587 16.966 18.4299 17.6966 17.6964C18.4272 16.9656 18.6559 16.0786 18.7061 15.0773C18.7646 14.0452 18.7646 10.9548 18.7061 9.92274ZM17.3731 16.1846C17.1556 16.7313 16.7345 17.1525 16.1852 17.3728C15.3625 17.6992 13.4105 17.6238 12.5014 17.6238C11.5923 17.6238 9.63748 17.6964 8.81762 17.3728C8.27105 17.1552 7.84997 16.7341 7.62967 16.1846C7.3034 15.3618 7.3787 13.4093 7.3787 12.5C7.3787 11.5907 7.30619 9.63545 7.62967 8.81541C7.84718 8.26872 8.26827 7.84754 8.81762 7.62719C9.64027 7.30085 11.5923 7.37616 12.5014 7.37616C13.4105 7.37616 15.3653 7.30364 16.1852 7.62719C16.7317 7.84475 17.1528 8.26593 17.3731 8.81541C17.6994 9.63824 17.6241 11.5907 17.6241 12.5C17.6241 13.4093 17.6994 15.3646 17.3731 16.1846Z" fill="gray"/>
</svg>
