<svg width="25" height="25" viewBox="0 0 25 25" fill="none" xmlns="http://www.w3.org/2000/svg">
<path d="M12.4998 4.16669C7.89634 4.16669 4.1665 7.92173 4.1665 12.5563C4.1665 17.1909 7.89634 20.946 12.4998 20.946C17.1033 20.946 20.8332 17.1909 20.8332 12.5563C20.8332 7.92173 17.1033 4.16669 12.4998 4.16669ZM16.5926 9.91427L15.225 16.4027C15.1242 16.8628 14.852 16.9744 14.4723 16.7579L12.3889 15.2119L11.3842 16.1862C11.2734 16.2978 11.1793 16.3926 10.9642 16.3926L11.1121 14.2579L14.973 10.7465C15.141 10.5976 14.936 10.513 14.7142 10.6619L9.94271 13.6862L7.88626 13.0401C7.43935 12.898 7.42927 12.5902 7.98035 12.3736L16.0146 9.2546C16.3876 9.11928 16.7135 9.34594 16.5926 9.91427Z" fill="#2D7ABF"/>
<circle cx="12.5" cy="12.5" r="12" stroke="#2D7ABF"/>
</svg>
