<svg width="25" height="25" viewBox="0 0 25 25" fill="none" xmlns="http://www.w3.org/2000/svg">
<path d="M19.6347 8.66723C19.7375 8.32082 19.6347 8.06586 19.1406 8.06586H17.5054C17.089 8.06586 16.8974 8.28479 16.7947 8.52867C16.7947 8.52867 15.9618 10.5545 14.7847 11.8681C14.4044 12.2478 14.2295 12.3697 14.0212 12.3697C13.9185 12.3697 13.7603 12.2478 13.7603 11.9014V8.66723C13.7603 8.25154 13.6437 8.06586 13.2994 8.06586H10.7286C10.4677 8.06586 10.3122 8.25985 10.3122 8.43999C10.3122 8.83351 10.9008 8.92497 10.9618 10.0335V12.439C10.9618 12.9656 10.8675 13.0626 10.6592 13.0626C10.104 13.0626 8.75476 11.0284 7.95521 8.70049C7.79419 8.24876 7.63595 8.06586 7.21674 8.06586H5.58155C5.11514 8.06586 5.02075 8.28479 5.02075 8.52867C5.02075 8.961 5.57599 11.1088 7.60541 13.9466C8.95742 15.8838 10.8619 16.9341 12.5943 16.9341C13.6353 16.9341 13.763 16.7013 13.763 16.2995C13.763 14.4482 13.6687 14.2736 14.1906 14.2736C14.4321 14.2736 14.8485 14.3956 15.8202 15.3295C16.9307 16.438 17.1139 16.9341 17.7358 16.9341H19.371C19.8374 16.9341 20.0734 16.7013 19.9374 16.2413C19.6264 15.2741 17.5248 13.2843 17.4304 13.1512C17.1889 12.8409 17.2583 12.7023 17.4304 12.4252C17.4332 12.4224 19.4293 9.6178 19.6347 8.66723Z" fill="#2D7ABF"/>
<circle cx="12.5" cy="12.5" r="12" stroke="#2D7ABF"/>
</svg>
