<svg class="social-yt" width="40" height="40" viewBox="0 0 25 25" fill="none" xmlns="http://www.w3.org/2000/svg">
<circle cx="12.5" cy="12.5" r="12" stroke="gray"/>
<path d="M18.919 13.4917V17.6701C18.919 17.9315 18.8642 18.1695 18.753 18.3881C18.6426 18.6081 18.4917 18.8003 18.3002 18.9656C18.1094 19.1315 17.8894 19.2599 17.6393 19.3553C17.3877 19.4499 17.1174 19.498 16.826 19.498H8.28513C8.00051 19.498 7.73242 19.4499 7.48159 19.3553C7.23076 19.2599 7.00997 19.1315 6.81998 18.9656C6.63073 18.8003 6.47828 18.6081 6.36639 18.3881C6.25599 18.1695 6.20117 17.9315 6.20117 17.6701V13.4917C6.20117 13.2439 6.25599 13.0073 6.36714 12.7828C6.47828 12.5575 6.63148 12.363 6.82073 12.2023C7.01073 12.0408 7.23151 11.9094 7.48234 11.8118C7.73317 11.7141 8.00127 11.6646 8.28589 11.6646H16.8268C17.1114 11.6646 17.3802 11.7141 17.6348 11.8118C17.8886 11.9094 18.1102 12.0408 18.3009 12.2023C18.4924 12.3637 18.6426 12.5582 18.7538 12.7828C18.8649 13.0073 18.919 13.2439 18.919 13.4917ZM8.85738 18.1365V13.729H9.90499V13.0629H7.07681V13.7102H7.98324V18.1365H8.85738ZM9.28469 7.88339L8.11391 5.3233H9.13299L9.71575 7.23679L10.2963 5.3233H11.3138L10.2174 7.88339V10.8648H9.28469V7.88339ZM12.037 14.3763H11.1621V16.7292C11.1621 16.8996 11.1636 17.0318 11.1704 17.1227C11.1764 17.2158 11.1636 17.2744 11.1321 17.2991C11.1058 17.4005 11.0322 17.4749 10.9068 17.5229C10.7859 17.5695 10.692 17.5034 10.6267 17.3179C10.6132 17.2931 10.6117 17.2308 10.6184 17.1332C10.6244 17.034 10.6267 16.9056 10.6267 16.7464L10.6087 14.3763H9.73302L9.7533 16.7096C9.7533 16.8929 9.74879 17.0461 9.74278 17.17C9.73677 17.2939 9.73828 17.387 9.7533 17.4508C9.76531 17.5537 9.77658 17.6619 9.79009 17.7798C9.80211 17.8962 9.86219 17.9908 9.97183 18.0606C10.0732 18.1237 10.1919 18.1568 10.327 18.1568C10.4652 18.1568 10.5989 18.1335 10.7281 18.0884C10.8595 18.0434 10.9781 17.9825 11.0893 17.9044C11.1997 17.8256 11.2815 17.74 11.3311 17.6514L11.3138 18.117L12.037 18.1357V14.3763ZM11.2365 8.27465C11.2365 7.92544 11.2703 7.63556 11.3319 7.40952C11.41 7.17371 11.5324 7.00549 11.7043 6.90336C11.8763 6.77645 12.0948 6.71261 12.3614 6.71261C12.5957 6.71261 12.791 6.75166 12.9517 6.82676C13.1094 6.89059 13.2401 7.00099 13.3415 7.16019C13.4181 7.27585 13.4759 7.40426 13.5134 7.55145C13.5495 7.70991 13.5698 7.92244 13.5698 8.18979V9.18783C13.5698 9.55056 13.5495 9.8104 13.5134 9.97035C13.4984 10.1153 13.4368 10.2775 13.3212 10.4555C13.2078 10.6132 13.0846 10.7183 12.9517 10.7694C12.791 10.846 12.6123 10.8828 12.408 10.8828C12.2007 10.8828 12.0077 10.8513 11.838 10.7874C11.6781 10.7371 11.5601 10.6447 11.4858 10.5126C11.41 10.4089 11.3454 10.2677 11.2936 10.083C11.2568 9.91027 11.2365 9.65269 11.2365 9.30273V8.27465ZM12.0175 9.82617C12.0175 9.92755 12.0558 10.0184 12.1324 10.098C12.2075 10.1761 12.3006 10.2159 12.4073 10.2159C12.5079 10.2159 12.5995 10.1784 12.6791 10.1018C12.7587 10.0267 12.797 9.93356 12.797 9.82617V7.76023C12.797 7.64608 12.7587 7.5507 12.6791 7.4711C12.6003 7.3915 12.5079 7.35094 12.408 7.35094C12.3066 7.35094 12.2158 7.3915 12.1377 7.4711C12.058 7.5507 12.0175 7.64608 12.0175 7.76023V9.82617ZM14.8637 17.0611V15.1093C14.8637 14.7353 14.7315 14.468 14.4657 14.3103C14.3771 14.2599 14.2734 14.2337 14.16 14.2337C13.9498 14.2337 13.7094 14.332 13.4368 14.5288V13.0629H12.5612V18.0989L13.2851 18.0802L13.3415 17.7663C13.5765 17.9638 13.7891 18.0839 13.9745 18.1282C14.163 18.1718 14.32 18.1545 14.4507 18.0749C14.5813 17.9968 14.6827 17.8669 14.7548 17.6844C14.8269 17.5042 14.8637 17.2946 14.8637 17.0611ZM13.8086 14.7195C13.91 14.7195 13.9986 14.7496 14.0789 14.8104C14.1578 14.8705 14.1976 14.9388 14.1976 15.0139V17.2233C14.1976 17.2991 14.1578 17.3645 14.0789 17.4223C13.9986 17.4794 13.9092 17.5087 13.8086 17.5087C13.7057 17.5087 13.6163 17.4794 13.5352 17.4223C13.4571 17.3652 13.4188 17.2991 13.4188 17.2233V15.0139C13.4188 14.9381 13.4579 14.8705 13.5352 14.8104C13.6163 14.7496 13.7057 14.7195 13.8086 14.7195ZM14.2164 10.4743C14.1938 10.4232 14.1758 10.3691 14.1698 10.3166C14.1623 10.2632 14.154 10.2099 14.1398 10.1596C14.1277 10.0958 14.1217 10.0102 14.1217 9.90126V9.48372V6.86656H14.9403V9.893C14.9403 9.97035 14.9681 10.0349 15.0252 10.0935C15.0845 10.1498 15.1588 10.1791 15.2542 10.1791C15.3436 10.1791 15.4194 10.1498 15.4825 10.0935C15.5471 10.0357 15.5801 9.97035 15.5801 9.893V6.86656H16.3394V10.7506H15.3706L15.3879 10.4367C15.2985 10.5629 15.2144 10.662 15.131 10.7311C15.0297 10.7942 14.9193 10.8265 14.7976 10.8265C14.6527 10.8265 14.531 10.7942 14.4356 10.7311C14.3523 10.6748 14.2794 10.5884 14.2164 10.4743ZM17.6243 16.8148H16.9687V16.9094V17.2421C16.9687 17.3442 16.9319 17.4223 16.859 17.4794C16.7862 17.5372 16.6991 17.5642 16.5985 17.5642H16.4625C16.3619 17.5642 16.2793 17.5372 16.2117 17.4794C16.1449 17.4223 16.1103 17.3435 16.1103 17.2421V17.2045V16.8328V16.3371H17.6243V15.8137C17.6243 15.6177 17.6213 15.4285 17.6145 15.2482C17.6085 15.0665 17.5935 14.9253 17.568 14.8254C17.5424 14.6527 17.4658 14.5145 17.3337 14.4101C17.2045 14.3057 17.0528 14.2344 16.8778 14.1969C16.7036 14.1571 16.5256 14.151 16.3439 14.1773C16.1636 14.2029 16.0082 14.2622 15.8723 14.3576C15.7025 14.4717 15.5794 14.6279 15.502 14.8254C15.4254 15.0207 15.3879 15.294 15.3879 15.644V16.8155C15.3879 17.3089 15.5193 17.6626 15.7791 17.8714C16.0195 18.0674 16.2725 18.1665 16.5391 18.1665C16.5654 18.1665 16.5902 18.1665 16.6172 18.1665C16.9161 18.1485 17.179 18.0208 17.408 17.7858C17.5792 17.6146 17.6648 17.3885 17.6648 17.1106C17.6551 17.0205 17.6446 16.9214 17.6243 16.8148ZM16.9484 15.6988H16.1111L16.1298 15.234C16.1298 15.1318 16.1681 15.0492 16.244 14.9809C16.3206 14.914 16.4115 14.8802 16.5211 14.8802H16.5594C16.6721 14.8802 16.7689 14.9125 16.8493 14.9756C16.9274 15.0395 16.9687 15.1251 16.9687 15.234L16.9484 15.6988Z" fill="gray"/>
</svg>
